<svg width="22" height="27" viewBox="0 0 22 27" fill="none" xmlns="http://www.w3.org/2000/svg">
<path fill-rule="evenodd" clip-rule="evenodd" d="M19.1726 10.2513C19.1726 21.0974 20.602 26 10.9876 26C1.37212 26 2.83102 21.0974 2.83102 10.2513" fill="#F19191"/>
<path d="M19.1726 10.2513C19.1726 21.0974 20.602 26 10.9876 26C1.37212 26 2.83102 21.0974 2.83102 10.2513" stroke="black" stroke-width="1.5" stroke-linecap="round" stroke-linejoin="round"/>
<path d="M21 6.09326H1" stroke="black" stroke-width="1.5" stroke-linecap="round" stroke-linejoin="round"/>
<path fill-rule="evenodd" clip-rule="evenodd" d="M15.2415 6.09326C15.2415 6.09326 15.896 1 10.9992 1C6.10358 1 6.75814 6.09326 6.75814 6.09326" fill="#F19191"/>
<path d="M15.2415 6.09326C15.2415 6.09326 15.896 1 10.9992 1C6.10358 1 6.75814 6.09326 6.75814 6.09326" stroke="black" stroke-width="1.5" stroke-linecap="round" stroke-linejoin="round"/>
</svg>
