<?xml version="1.0" encoding="utf-8"?>
<!-- Generator: Adobe Illustrator 19.2.1, SVG Export Plug-In . SVG Version: 6.00 Build 0)  -->
<svg version="1.1" id="Camada_1" xmlns="http://www.w3.org/2000/svg" xmlns:xlink="http://www.w3.org/1999/xlink" x="0px" y="0px"
	 viewBox="0 0 200.7 202.6" style="enable-background:new 0 0 200.7 202.6;" xml:space="preserve">
<style type="text/css">
	.st0{fill:#B3397A;}
	.st1{fill:#444480;}
	.st2{fill:#9268E3;}
	.st3{display:none;}
	.st4{display:inline;fill:#9378AD;}
	.st5{display:inline;fill:#D1B4D3;}
	.st6{display:inline;fill:#CF6E39;}
	.st7{display:inline;fill:#F4E143;}
	.st8{display:inline;fill:#F4E352;}
	.st9{display:inline;fill:#FFFFFF;}
	.st10{fill:none;stroke:#9268E3;stroke-width:4;stroke-miterlimit:10;}
</style>
<g>
	<g>
		<path class="st0" d="M100.7,178.5c-1,0-1.9-0.6-2.3-1.5c-4.3-9.7-10-15-16.6-21.2l-2-1.8c-1-0.9-1-2.4,0-3.4l2-1.8
			c6.6-6.2,12.3-11.5,16.6-21.2c0.8-1.8,3.9-1.8,4.7,0c4.3,9.7,10,15,16.6,21.2l2,1.8c1,0.9,1,2.4,0,3.4l-2,1.8
			c-6.6,6.2-12.3,11.5-16.6,21.2C102.6,177.9,101.7,178.5,100.7,178.5z M85.2,152.3l0.1,0.1c5.6,5.3,11,10.3,15.4,18.1
			c4.4-7.8,9.7-12.8,15.4-18.1l0.2-0.1l-0.2-0.1c-5.6-5.3-11-10.3-15.4-18.1c-4.4,7.8-9.7,12.8-15.4,18.1L85.2,152.3z M100.7,78.7
			c-0.3,0-0.6-0.1-0.9-0.2c-0.5-0.2-11.7-4.2-20.1-16.4c-4.8-6.9-6.6-13.9-4.9-19.1c1.1-3.4,3.6-6,7.4-7.5c2.2-0.9,4.4-1.3,6.5-1.3
			c5.8,0,9.8,3.2,12,5.8c2.3-2.6,6.3-5.8,12-5.8c2.1,0,4.3,0.4,6.5,1.3c3.7,1.5,6.3,4.1,7.4,7.5c1.7,5.2-0.1,12.1-4.9,19.1
			c-8.4,12.2-19.7,16.3-20.1,16.4C101.3,78.6,101,78.7,100.7,78.7z M88.7,39c-1.4,0-3,0.3-4.5,0.9c-2.4,1-3.9,2.4-4.5,4.5
			c-1.2,3.8,0.4,9.4,4.3,15.1c6.2,9,14.2,13.1,16.8,14.2c2.6-1.2,10.6-5.3,16.8-14.2c3.9-5.7,5.5-11.3,4.3-15.1
			c-0.7-2-2.1-3.5-4.5-4.5c-1.6-0.6-3.1-1-4.5-1c-6.3,0-9.7,6.2-9.8,6.3c-0.4,0.8-1.3,1.3-2.3,1.3l0,0c-1,0-1.8-0.5-2.3-1.3
			C98.4,45.2,94.9,39,88.7,39z"/>
	</g>
</g>
<g>
	<g>
		<path class="st1" d="M56.9,132.5H36.1c-1.1,0-2.1-0.7-2.4-1.7c-0.3-1,0.1-2.1,1.1-2.7l0,0c0,0,2.5-1.7,5.2-7.2
			c0.1-0.2,0.1-0.4,0.2-0.6c-1.7,0.7-3.6,1.1-5.6,1.1c-8,0-14.5-6.1-14.5-13.7c0-6.7,5.2-12.4,12-13.5c0-0.4-0.1-0.7-0.1-1.1
			c0-7.5,6.5-13.7,14.5-13.7S61,85.5,61,93.1c0,0.4,0,0.7-0.1,1.1c6.8,1.1,12,6.7,12,13.5c0,7.5-6.5,13.7-14.5,13.7
			c-1.9,0-3.8-0.4-5.5-1c0.1,0.4,0.2,0.8,0.3,1.1c2.6,5.2,5,6.8,5,6.8c0.9,0.6,1.3,1.7,0.9,2.7C58.9,131.8,58,132.5,56.9,132.5z
			 M41.7,127.7h9.7c-0.8-1.2-1.7-2.6-2.6-4.3c-0.8-1.6-1.1-3.8-1.4-6.5l-0.2-1.3c-0.1-1,0.5-2,1.4-2.4c1-0.4,2.2-0.2,2.9,0.5
			c1.8,1.8,4.2,2.8,6.8,2.8c5.2,0,9.4-4,9.4-8.9s-4.2-8.9-9.4-8.9L58,98.8c-0.9,0-1.6-0.3-2.1-0.9s-0.7-1.4-0.4-2.2
			c0.3-1,0.5-1.8,0.5-2.6c0-4.9-4.2-8.9-9.4-8.9s-9.4,4-9.4,8.9c0,0.8,0.2,1.6,0.5,2.6c0.2,0.7,0.1,1.6-0.4,2.2s-1.3,0.9-2.1,0.9
			c-0.1,0-0.4,0-0.5,0l0,0c-5.2,0-9.4,4-9.4,8.9s4.2,8.9,9.4,8.9c2.6,0,5.1-1,6.9-2.9c0.7-0.7,1.9-1,2.9-0.6s1.6,1.4,1.5,2.4
			l-0.1,1.1c-0.3,2.5-0.5,4.7-1.2,6.3C43.5,124.8,42.6,126.4,41.7,127.7z M167.2,132.1h-20.8c-1.1,0-2.1-0.7-2.4-1.7
			c-0.3-1,0.1-2.1,1.1-2.7l0,0c0,0,2.5-1.7,5.1-7.2c-3.3,1.1-6.9,1-10.6-0.5c-3.5-1.4-5.9-3.8-6.9-7c-1.6-4.8,0.1-11.3,4.6-17.8
			c7.8-11.3,18.3-15.1,18.7-15.3c0.6-0.2,1.2-0.2,1.8,0c0.4,0.2,10.9,3.9,18.7,15.3c4.5,6.5,6.1,13,4.6,17.8c-1,3.2-3.4,5.6-6.9,7
			c-3.7,1.5-7.3,1.6-10.6,0.5c0,0.2,0.1,0.3,0.2,0.4c2.6,5.2,5,6.8,5,6.8c0.9,0.6,1.3,1.7,0.9,2.7
			C169.2,131.4,168.3,132.1,167.2,132.1z M152,127.3h9.7c-0.8-1.2-1.7-2.6-2.6-4.3c-0.8-1.6-1.1-3.9-1.4-6.5c-0.1-1,0.4-2.1,1.3-2.5
			c0.9-0.4,2-0.5,2.8,0.2c3,2.5,6.4,3.1,10.2,1.5c2.2-0.9,3.5-2.2,4.1-4c1.1-3.4-0.4-8.6-4-13.8c-5.6-8.2-12.9-11.9-15.4-13.1
			c-2.5,1.1-9.8,4.9-15.4,13c-3.6,5.2-5.1,10.4-4,13.8c0.6,1.8,1.9,3.2,4.1,4c3.8,1.5,7.3,1,10.2-1.6c0.8-0.7,1.9-0.8,2.8-0.4
			c0.9,0.4,1.5,1.4,1.4,2.4c-0.3,2.7-0.5,4.9-1.2,6.4C153.9,124.4,152.9,126,152,127.3z"/>
	</g>
</g>
<g>
	<g>
		<path class="st2" d="M155.1,159.7c-0.6,0-1.3-0.2-1.8-0.7l-52.7-49.7L48,159c-1,0.9-2.6,0.9-3.6,0s-1-2.4,0-3.4l52.7-49.7
			L44.5,56.2c-1-0.9-1-2.4,0-3.4c1-0.9,2.6-0.9,3.6,0l52.7,49.7l52.7-49.7c1-0.9,2.6-0.9,3.6,0s1,2.4,0,3.4l-52.7,49.7l52.7,49.7
			c1,0.9,1,2.4,0,3.4C156.4,159.5,155.8,159.7,155.1,159.7z"/>
	</g>
</g>
<g class="st3">
	<path class="st4" d="M167.3,131.1C167.2,131.1,167.2,131.1,167.3,131.1h-20.8c-0.7,0-1.3-0.4-1.4-1c-0.2-0.6,0.1-1.3,0.6-1.6
		c0,0,2.7-1.8,5.5-7.6c0.2-0.5,0.4-1.2,0.5-2c-3.5,1.8-7.6,2-11.7,0.3c-3.3-1.3-5.4-3.5-6.4-6.4c-1.5-4.6,0.1-10.8,4.4-17
		c7.6-11.1,17.8-14.8,18.2-14.9c0.3-0.1,0.7-0.1,1.1,0c0.4,0.2,10.6,3.8,18.2,14.9c4.3,6.2,5.9,12.4,4.4,17
		c-0.9,2.9-3.1,5.1-6.4,6.4c-4.1,1.6-8.1,1.5-11.5-0.2c0.2,1,0.4,1.9,0.6,2.4c2.4,4.6,4.5,6.6,5.1,7c0.5,0.2,0.9,0.7,0.9,1.3
		C168.8,130.5,168.1,131.1,167.3,131.1z M150,128.2h13.6c-1.1-1.3-2.3-3.1-3.6-5.7c-0.7-1.4-1-3.8-1.3-6.2c-0.1-0.6,0.2-1.3,0.8-1.6
		c0.6-0.3,1.2-0.3,1.7,0.1c3.3,2.8,7.1,3.4,11.2,1.7c2.4-1,4-2.5,4.7-4.6c1.2-3.7-0.3-9.2-4.1-14.6c-6.1-8.9-14.1-12.7-16.2-13.6
		c-2.1,0.9-10.1,4.7-16.2,13.6c-3.8,5.4-5.3,10.9-4.1,14.6c0.7,2.1,2.2,3.6,4.7,4.6c4.2,1.7,8,1.1,11.3-1.8c0.5-0.4,1.1-0.5,1.7-0.2
		c0.6,0.3,0.9,0.8,0.8,1.4c-0.2,2.5-0.5,4.7-1.1,6.1C152.5,124.9,151.2,126.9,150,128.2z"/>
</g>
<g class="st3">
	<path class="st4" d="M56.9,131.5L56.9,131.5H36.1c-0.7,0-1.3-0.4-1.4-1c-0.2-0.6,0.1-1.3,0.6-1.6c0,0,2.7-1.8,5.5-7.6
		c0.3-0.6,0.5-1.6,0.6-2.7c-2.1,1.2-4.4,1.8-6.9,1.8c-7.4,0-13.5-5.7-13.5-12.7c0-6.6,5.3-12,12.1-12.7c0-0.7-0.1-1.3-0.1-2
		c0-7,6-12.7,13.5-12.7C53.9,80.3,60,86,60,93c0,0.6-0.1,1.3-0.2,1.9c6.8,0.6,12.1,6.1,12.1,12.7c0,7-6,12.7-13.5,12.7
		c-2.4,0-4.7-0.6-6.8-1.7c0.2,1.3,0.4,2.5,0.7,3.2c2.4,4.6,4.5,6.6,5.1,7c0.5,0.2,0.9,0.7,0.9,1.3C58.4,130.9,57.8,131.5,56.9,131.5
		z M39.7,128.7h13.6c-1.1-1.3-2.3-3.1-3.6-5.7c-0.7-1.4-1-3.7-1.3-6.2l-0.2-1.3c-0.1-0.6,0.3-1.2,0.9-1.5c0.6-0.3,1.3-0.1,1.7,0.3
		c2,2,4.7,3.1,7.6,3.1c5.8,0,10.4-4.4,10.4-9.9c0-5.4-4.7-9.9-10.4-9.9l-0.5,0.1c-0.6,0-1-0.2-1.3-0.5c-0.3-0.4-0.4-0.9-0.2-1.3
		c0.4-1.1,0.5-2,0.5-2.9c0-5.4-4.7-9.9-10.4-9.9C40.7,83.2,36,87.6,36,93c0,0.9,0.2,1.8,0.5,2.9c0.1,0.4,0.1,0.9-0.3,1.3
		c-0.3,0.4-0.7,0.6-1.3,0.5c0,0-0.3,0-0.4,0c-6-0.1-10.6,4.4-10.6,9.8s4.7,9.9,10.4,9.9c2.9,0,5.6-1.1,7.6-3.2
		c0.4-0.4,1.1-0.6,1.7-0.3c0.6,0.2,0.9,0.8,0.9,1.4l-0.1,1.1c-0.2,2.4-0.4,4.6-1.1,6C42.2,125.3,40.8,127.3,39.7,128.7z"/>
</g>
<g class="st3">
	<path class="st5" d="M167.2,130.1L167.2,130.1h-20.8c-0.2,0-0.4-0.1-0.5-0.3s0-0.4,0.2-0.5c0,0,3-1.9,5.9-8.1
		c0.4-0.9,0.7-2.5,0.8-4.3c-3.7,2.7-8,3.2-12.5,1.3c-3-1.2-4.9-3.2-5.8-5.8c-1.4-4.2,0.2-10.3,4.3-16.2
		c7.5-10.8,17.6-14.5,17.7-14.5c0.1,0,0.2,0,0.4,0c0.1,0,10.3,3.7,17.7,14.5c4.1,5.9,5.7,12,4.3,16.2c-0.9,2.7-2.8,4.6-5.8,5.8
		c-4.5,1.8-8.8,1.3-12.4-1.3c0.2,2,0.5,3.7,1,4.7c2.7,5.3,5.2,7.2,5.6,7.5c0.2,0.1,0.3,0.2,0.3,0.4
		C167.7,129.9,167.5,130.1,167.2,130.1z M147.8,129.2h18c-1.1-1.1-3-3.2-4.9-7.1c-0.7-1.3-0.9-3.5-1.2-5.9v-0.3
		c0-0.2,0.1-0.4,0.3-0.5s0.4-0.1,0.6,0.1c3.6,3,7.8,3.7,12.3,1.9c2.7-1.1,4.5-2.8,5.2-5.2c1.3-4-0.3-9.7-4.2-15.4
		c-6.7-9.8-15.7-13.6-17.1-14.1c-1.4,0.5-10.3,4.3-17.1,14.1c-3.9,5.7-5.5,11.4-4.2,15.4c0.8,2.4,2.5,4.1,5.2,5.2
		c4.6,1.8,8.8,1.2,12.4-1.9c0.2-0.1,0.4-0.2,0.6-0.1c0.2,0.1,0.3,0.3,0.3,0.5v0.1c-0.2,2.3-0.4,4.4-1,5.6
		C151,125.8,149,128.1,147.8,129.2z"/>
</g>
<g class="st3">
	<path class="st5" d="M56.9,130.6L56.9,130.6H36.1c-0.2,0-0.4-0.1-0.5-0.3s0-0.4,0.2-0.5c0,0,3-1.9,5.9-8.1c0.5-1.1,0.7-3,0.9-5.1
		c-2.3,1.9-5.1,2.9-8.1,2.9c-6.9,0-12.5-5.3-12.5-11.8S27.5,96,34.4,95.9c-0.3-1-0.4-1.9-0.4-2.8c0-6.5,5.6-11.8,12.5-11.8
		S59,86.6,59,93.1c0,0.9-0.1,1.8-0.4,2.8c6.8,0,12.4,5.3,12.4,11.8s-5.6,11.8-12.5,11.8c-3,0-5.8-1-8-2.8l0,0
		c0.3,2.3,0.5,4.4,1.1,5.5c2.7,5.3,5.2,7.2,5.6,7.5c0.2,0.1,0.3,0.2,0.3,0.4C57.4,130.4,57.2,130.6,56.9,130.6z M37.5,129.6h18
		c-1.1-1.1-3-3.2-4.9-7.1c-0.7-1.3-0.9-3.5-1.2-5.8l-0.2-1.3c0-0.2,0.1-0.4,0.3-0.5s0.4,0,0.6,0.1c2.2,2.2,5.2,3.4,8.3,3.4
		c6.3,0,11.5-4.9,11.5-10.8c0-6-5.1-10.8-11.5-10.8c-0.1,0-0.2,0-0.3,0s-0.2,0-0.3,0c-0.2,0-0.3-0.1-0.4-0.2
		c-0.1-0.1-0.1-0.3-0.1-0.4c0.4-1.2,0.6-2.2,0.6-3.2c0-6-5.1-10.8-11.4-10.8C40.2,82.2,35,87.1,35,93c0,1,0.2,2,0.6,3.2
		c0.1,0.1,0,0.3-0.1,0.4s-0.2,0.2-0.4,0.2l0,0c-0.1,0-0.2,0-0.3,0s-0.2,0-0.3,0c-6.3,0-11.4,4.9-11.4,10.8c0,6,5.1,10.8,11.4,10.8
		c3.2,0,6.2-1.2,8.4-3.5c0.1-0.1,0.4-0.2,0.6-0.1c0.2,0.1,0.3,0.3,0.3,0.5l-0.1,1.1c-0.2,2.3-0.4,4.4-1,5.7
		C40.6,126.2,38.6,128.5,37.5,129.6z"/>
</g>
<g class="st3">
	<path class="st6" d="M100.7,77.7c-0.2,0-0.4,0-0.5-0.1c-0.5-0.2-11.4-4.1-19.6-16.1c-4.6-6.7-6.4-13.4-4.8-18.3
		c1-3.1,3.3-5.5,6.8-6.9c2.1-0.8,4.1-1.2,6.1-1.2c6.1,0,10.1,3.9,12,6.4c1.9-2.5,5.9-6.4,12-6.4c2,0,4,0.4,6.1,1.3
		c3.5,1.4,5.8,3.7,6.8,6.9c1.6,4.9-0.2,11.6-4.8,18.3c-8.2,11.9-19.2,15.9-19.7,16.1C101,77.7,100.9,77.7,100.7,77.7z M88.7,38.1
		c-1.6,0-3.2,0.3-4.9,1c-2.6,1.1-4.4,2.8-5.1,5.1c-1.3,4,0.3,10,4.4,15.9c6.7,9.7,15.4,13.8,17.6,14.7c2.2-0.9,11-5.1,17.6-14.7
		c4.1-5.9,5.7-11.8,4.4-15.9c-0.7-2.3-2.5-4-5.1-5.1c-1.7-0.7-3.4-1-4.9-1c-6.9,0-10.6,6.8-10.7,6.8c-0.3,0.5-0.8,0.8-1.3,0.8l0,0
		c-0.6,0-1.1-0.3-1.4-0.8C99.3,44.8,95.6,38.1,88.7,38.1z"/>
</g>
<g class="st3">
	<path class="st6" d="M100.7,177.6c-0.6,0-1.2-0.3-1.4-0.9c-4.4-9.9-10.2-15.3-16.8-21.5l-2-1.8c-0.6-0.6-0.6-1.5,0-2l2-1.8
		c6.7-6.2,12.4-11.6,16.8-21.5c0.5-1.1,2.3-1.1,2.8,0c4.4,9.9,10.2,15.3,16.8,21.5l2,1.8c0.6,0.6,0.6,1.5,0,2l-2,1.8
		c-6.7,6.2-12.4,11.6-16.8,21.5C101.8,177.2,101.3,177.6,100.7,177.6z M83.7,152.3l0.9,0.8c6,5.6,11.6,10.9,16.1,19.5
		c4.5-8.6,10.1-13.9,16.1-19.5l0.9-0.8l-0.9-0.8c-6-5.6-11.6-10.9-16.1-19.5c-4.5,8.6-10.1,13.9-16.1,19.5L83.7,152.3z"/>
</g>
<g class="st3">
	<path class="st7" d="M100.7,76.8c-0.1,0-0.1,0-0.2,0s-11.1-4-19.1-15.7c-4.4-6.4-6.1-12.9-4.7-17.5c0.9-2.9,3-5,6.2-6.3
		c1.9-0.8,3.9-1.2,5.7-1.2c6.8,0,10.8,5.1,12,7.1c1.3-2,5.3-7.1,12-7.1c1.8,0,3.8,0.4,5.7,1.2c3.2,1.3,5.3,3.4,6.2,6.3
		c1.5,4.6-0.3,11.1-4.7,17.5c-8.1,11.7-19,15.6-19.2,15.7C100.8,76.8,100.7,76.8,100.7,76.8z M88.7,37.1c-1.7,0-3.5,0.4-5.3,1.1
		c-2.9,1.2-4.8,3.1-5.7,5.7c-1.4,4.3,0.3,10.5,4.5,16.7c7.3,10.6,17.1,14.7,18.5,15.3c1.4-0.6,11.2-4.7,18.5-15.3
		c4.2-6.1,5.9-12.4,4.5-16.7c-0.8-2.6-2.7-4.5-5.7-5.7c-1.8-0.7-3.6-1.1-5.3-1.1c-7.6,0-11.5,7.3-11.6,7.3c-0.2,0.3-0.7,0.3-0.9,0
		C100.2,44.4,96.2,37.1,88.7,37.1z"/>
</g>
<g class="st3">
	<path class="st7" d="M100.7,176.6c-0.2,0-0.4-0.1-0.5-0.3c-4.5-10.1-10.6-15.8-17.1-21.8l-2-1.8c-0.2-0.2-0.2-0.5,0-0.7l1.9-1.8
		c6.5-6.1,12.6-11.8,17.1-21.8c0.2-0.4,0.8-0.4,0.9,0c4.5,10.1,10.6,15.8,17.1,21.8l2,1.8c0.2,0.2,0.2,0.5,0,0.7l-2,1.8
		c-6.5,6-12.6,11.8-17,21.8C101.1,176.5,100.9,176.6,100.7,176.6z M82.3,152.3l1.6,1.5c6.3,5.9,12.3,11.5,16.8,21.1
		c4.5-9.6,10.5-15.2,16.8-21.1l1.6-1.5l-1.6-1.5c-6.3-5.9-12.3-11.5-16.8-21.1c-4.5,9.6-10.5,15.2-16.8,21.1L82.3,152.3z"/>
</g>
<g class="st3">
	<path class="st8" d="M76.2,28.5c-5.1,0-8.9-3.4-10.2-9.2c-1.8-8.1,2.9-12.1,7.5-13c0.7-0.1,1.5-0.2,2.2-0.2c5.1,0,8.9,3.4,10.2,9.2
		c0.8,3.4,0.4,6.4-1.1,8.8c-1.4,2.2-3.6,3.7-6.4,4.2C77.7,28.4,76.9,28.5,76.2,28.5z M75.7,8.9c-0.5,0-1.1,0.1-1.6,0.2
		c-3.4,0.7-6.5,3.6-5.2,9.6c1.2,5.1,4.6,7.6,8.9,6.8c2-0.4,3.5-1.4,4.4-2.9c1.1-1.7,1.3-4,0.7-6.7C82,11.5,79.3,8.9,75.7,8.9z"/>
</g>
<g class="st3">
	<path class="st8" d="M56.1,36.8c-0.5,0-1.1-0.3-1.3-0.7l-9.2-15.9c-0.4-0.7-0.5-1.5-0.3-2.2s0.7-1.3,1.5-1.7c0,0,0.1,0,0.1-0.1
		l5.3-2.7l0,0c1.6-0.8,3.4-1,5.1-0.5c1.7,0.5,3.2,1.6,4,3.1c0.9,1.5,1.1,3.2,0.6,4.9c-0.5,1.7-1.6,3-3.2,3.8l-5.4,2.8l4.1,7.1
		c0.4,0.7,0.1,1.6-0.6,1.9C56.6,36.8,56.3,36.8,56.1,36.8z M48.2,18.7l3.7,6.4l5.4-2.8c0.9-0.4,1.5-1.2,1.7-2.1
		c0.3-0.9,0.1-1.9-0.4-2.8s-1.3-1.5-2.3-1.8c-0.9-0.3-1.9-0.2-2.8,0.3L48.2,18.7z"/>
</g>
<g class="st3">
	<path class="st8" d="M126.6,29.6c-0.1,0-0.3,0-0.4-0.1l-11-2.9c-0.8-0.2-1.4-0.7-1.8-1.4c-0.4-0.7-0.5-1.5-0.3-2.2l4.7-16
		c0.5-1.5,2.1-2.4,3.8-2l11,2.9c0.8,0.2,1.3,1,1.1,1.8s-1.1,1.2-1.9,1l-11-2.9l-1.9,6.5l9.8,2.6c0.8,0.2,1.3,1,1.1,1.8
		s-1.1,1.2-1.9,1L118,17l-2.1,6.9l11,2.9c0.8,0.2,1.3,1,1.1,1.8C127.8,29.2,127.2,29.6,126.6,29.6z"/>
</g>
<g class="st3">
	<path class="st8" d="M145.3,37.4c-0.7,0-1.3-0.5-1.5-1.2c-0.3-1.5,0.5-3.2,1.3-5.1c0.4-1,0.9-2.2,1-2.8c0-1.1-1.1-1.5-1.2-1.6
		c-0.3-0.1-0.6-0.2-0.9-0.3l-5.7-2.4l-3.6,7.4c-0.3,0.7-1.2,1-2,0.7s-1.1-1.2-0.7-1.9l8-16.5c0.3-0.7,0.9-1.2,1.6-1.5
		c0,0,0.1,0,0.1-0.1c0.8-0.3,1.6-0.2,2.3,0.1l5.6,2.4l0,0l0,0c3.4,1.5,4.8,5.3,3.2,8.5c-0.8,1.6-2.1,2.8-3.8,3.4
		c-0.1,0-0.2,0.1-0.3,0.1c0.2,0.5,0.3,1.1,0.3,1.7c0,1-0.6,2.3-1.2,3.7c-0.5,1.2-1.2,2.9-1.1,3.5c0.2,0.8-0.4,1.5-1.2,1.7
		C145.5,37.4,145.4,37.4,145.3,37.4z M139.5,21.4l5.7,2.4c0.9,0.4,1.9,0.4,2.8,0.1c0.9-0.3,1.7-1,2.1-1.9c0.9-1.8,0.1-3.9-1.8-4.7
		l0,0l-5.6-2.4L139.5,21.4z"/>
</g>
<g class="st3">
	<path class="st8" d="M94,25.8c-0.8,0-1.5-0.6-1.5-1.4L92.2,4.8c0-0.8,0.7-1.4,1.5-1.4s1.5,0.6,1.5,1.4l0.1,8.3l9.9-9.5
		c0.6-0.6,1.5-0.6,2.1,0s0.6,1.5,0,2l-7.9,7.6l8.7,10.1c0.5,0.6,0.4,1.5-0.2,2c-0.7,0.5-1.6,0.4-2.1-0.2l-8.5-9.9l-2,1.9l0.1,7.2
		C95.5,25.1,94.9,25.7,94,25.8L94,25.8z"/>
</g>
<g class="st3">
	<path class="st8" d="M44.9,191.3c-0.4,0-0.7-0.1-1-0.4l-7.7-6.4c-0.6-0.5-1-1.3-1.1-2.1c0-0.8,0.2-1.5,0.8-2.1l13.1-14
		c0.6-0.6,1.5-0.7,2.1-0.1c0.6,0.5,0.7,1.4,0.1,2l-13.1,14.1l7.7,6.5c0.6,0.5,0.7,1.4,0.1,2C45.7,191.1,45.3,191.3,44.9,191.3z"/>
</g>
<g class="st3">
	<path class="st8" d="M108.5,205c-4.7,0-10-2.8-10.6-11c-0.6-8.6,4.9-11.9,9.7-12.2c4.8-0.3,8.6,1.9,10,5.7c0.3,0.7-0.2,1.6-1,1.8
		c-0.8,0.3-1.6-0.1-1.9-0.9c-1.3-3.7-5.3-3.9-6.9-3.8c-3.6,0.2-7.3,2.8-6.9,9.2c0.4,6.5,4.5,8.5,8.1,8.3c3.9-0.2,6.4-2.8,6.9-6.9
		c0-0.2,0-0.4,0.1-0.6l-6.5,0.3c-0.8,0-1.6-0.5-1.6-1.3c-0.1-0.8,0.6-1.5,1.4-1.5l6.5-0.4c1.7-0.1,3.2,1.1,3.3,2.7l0.5,7.9
		c0.1,0.8-0.6,1.5-1.4,1.5c-0.9,0-1.6-0.5-1.6-1.3l-0.1-1.1c-1.7,2.1-4.2,3.3-7.3,3.5C109,204.9,108.7,205,108.5,205z"/>
</g>
<g class="st3">
	<path class="st8" d="M135.2,200.5c-1.2,0-2.3-0.2-3.4-0.7c-2-0.8-3.6-2.4-4.3-4.3l-5-13.5c-0.3-0.7,0.1-1.6,0.9-1.8
		c0.8-0.3,1.6,0.1,1.9,0.9l5,13.5c0.4,1.1,1.3,2.1,2.6,2.6s2.8,0.6,4.2,0.1l0.6-0.2c1.4-0.5,2.5-1.4,3.2-2.5
		c0.6-1.1,0.8-2.4,0.3-3.5l-5-13.5c-0.3-0.7,0.1-1.6,0.9-1.8c0.8-0.3,1.6,0.1,1.9,0.9l5,13.5c0.7,1.9,0.5,4-0.5,5.8
		s-2.8,3.2-4.9,3.9l-0.6,0.2C137.2,200.3,136.2,200.5,135.2,200.5z"/>
</g>
<g class="st3">
	<path class="st8" d="M65.1,200.3c-0.2,0-0.4,0-0.6-0.1l-10.9-4.4c-1.6-0.6-2.3-2.4-1.6-3.9l3.7-8.1c0,0,0,0,0-0.1c0,0,0,0,0-0.1
		l3.5-7.7c0.7-1.5,2.5-2.2,4.1-1.5l10.9,4.4c0.8,0.3,1.1,1.2,0.8,1.9c-0.3,0.7-1.2,1.1-2,0.7L62.2,177l-3,6.5l9.7,4
		c0.8,0.3,1.1,1.1,0.8,1.9c-0.3,0.7-1.2,1.1-2,0.7l-9.7-4l-3.2,6.9l10.9,4.5c0.8,0.3,1.1,1.2,0.8,1.9
		C66.3,199.9,65.7,200.3,65.1,200.3z"/>
</g>
<g class="st3">
	<path class="st8" d="M157,191.2c-1,0-2.1-0.5-2.7-1.4l-5-7.5c0,0,0,0,0-0.1c0,0,0,0,0-0.1l-4.7-7.1c-0.9-1.4-0.5-3.2,1-4.1
		l10.1-5.9c0.7-0.4,1.6-0.2,2.1,0.5c0.4,0.7,0.2,1.6-0.5,2l-10.1,5.9l3.9,6l9-5.3c0.7-0.4,1.6-0.2,2.1,0.5c0.4,0.7,0.2,1.6-0.5,2
		l-9,5.3l4.2,6.4l10.2-5.9c0.7-0.4,1.6-0.2,2.1,0.5c0.4,0.7,0.2,1.6-0.5,2l-10.1,5.9C158.2,191,157.6,191.2,157,191.2z"/>
</g>
<g class="st3">
	<path class="st8" d="M91.3,204.8c-0.7,0-1.4-0.5-1.5-1.2l-1.3-6.8l-8.6-1.3l-3.7,6.1c-0.4,0.7-1.3,0.9-2.1,0.5
		c-0.7-0.4-1-1.3-0.6-1.9l11.2-18.4c0.8-1.3,1.8-1.3,2.2-1.2c0.4,0.1,1.4,0.4,1.7,1.8l2.5,12.9v0.1l1.5,7.8c0.2,0.8-0.4,1.5-1.2,1.7
		C91.5,204.7,91.4,204.8,91.3,204.8z M81.5,192.8l6.4,1l-1.7-8.7L81.5,192.8z"/>
</g>
<g class="st3">
	<path class="st8" d="M46.2,158.8c-0.4,0-0.8-0.1-1.1-0.4c-0.6-0.6-0.6-1.5,0-2l109-102.9c0.6-0.6,1.6-0.6,2.1,0
		c0.6,0.6,0.6,1.5,0,2L47.3,158.3C47,158.6,46.6,158.8,46.2,158.8z"/>
</g>
<g class="st3">
	<path class="st8" d="M155.1,158.8c-0.4,0-0.8-0.1-1.1-0.4L45.2,55.5c-0.6-0.6-0.6-1.5,0-2c0.6-0.6,1.6-0.6,2.1,0l108.9,102.8
		c0.6,0.6,0.6,1.5,0,2C155.9,158.6,155.5,158.8,155.1,158.8z"/>
</g>
<g class="st3">
	<path class="st8" d="M35.2,170.1c-0.4,0-0.7-0.1-1-0.4c-19.9-17-31.4-41.4-31.4-66.7c0-28.9,14.9-56.3,39.8-73.2
		c0.7-0.5,1.6-0.3,2.1,0.3c0.5,0.6,0.3,1.5-0.3,2C20.2,48.5,5.8,75,5.8,103c0,24.6,11.1,48.1,30.4,64.6c0.6,0.5,0.7,1.4,0.1,2
		C36,170,35.6,170.1,35.2,170.1z"/>
</g>
<g class="st3">
	<path class="st8" d="M165.2,166.3c-0.4,0-0.8-0.1-1.1-0.4c-0.6-0.6-0.6-1.5,0-2c16.9-16.4,26.2-38,26.2-60.9
		c0-27.5-13.4-52.9-36.7-69.5c-0.7-0.5-0.8-1.4-0.3-2c0.5-0.6,1.4-0.8,2.1-0.3c24.1,17.2,37.9,43.4,37.9,71.8
		c0,23.6-9.6,46-27.1,62.9C166,166.2,165.6,166.3,165.2,166.3z"/>
</g>
<g class="st3">
	<path class="st9" d="M76.2,27.6c-4.6,0-8-3.2-9.2-8.4c-1.7-7.4,2.6-11,6.7-11.9C74.3,7.1,75,7,75.7,7c4.6,0,8,3.2,9.2,8.4
		c0.7,3.2,0.4,6-1,8.1c-1.2,1.9-3.3,3.3-5.7,3.8C77.6,27.5,76.9,27.6,76.2,27.6z M75.7,8c-0.6,0-1.2,0.1-1.8,0.2
		C70,9,66.4,12.2,68,18.9c1.1,4.9,4.1,7.7,8.3,7.7c0.6,0,1.2-0.1,1.8-0.2c2.2-0.5,4-1.6,5.1-3.3c1.2-1.9,1.5-4.5,0.8-7.4
		C82.8,10.8,79.8,8,75.7,8z"/>
</g>
<g class="st3">
	<path class="st9" d="M56.1,35.9c-0.2,0-0.4-0.1-0.4-0.3l-9.2-15.9c-0.3-0.5-0.3-1-0.2-1.5c0.2-0.5,0.5-0.9,1-1.1h0.1l5.3-2.8l0,0
		c1.3-0.7,2.9-0.8,4.4-0.4c1.5,0.4,2.7,1.4,3.5,2.7s0.9,2.8,0.5,4.2c-0.4,1.4-1.4,2.6-2.7,3.3L52,27.2h-0.1l4.6,7.9
		c0.1,0.2,0,0.5-0.2,0.6C56.3,35.8,56.2,35.9,56.1,35.9z M53.1,15l-5.4,2.8c-0.2,0.1-0.4,0.3-0.5,0.6c-0.1,0.3,0,0.6,0.1,0.8
		l4.2,7.1c0,0,0,0,0.1,0l6.3-3.3c1.1-0.6,1.9-1.5,2.2-2.7s0.2-2.4-0.5-3.5c-0.6-1.1-1.6-1.9-2.9-2.2C55.5,14.4,54.2,14.5,53.1,15
		L53.1,15z"/>
</g>
<g class="st3">
	<path class="st9" d="M126.6,28.7L126.6,28.7l-11.1-2.9c-0.5-0.1-1-0.5-1.2-0.9c-0.3-0.5-0.3-1-0.2-1.5l4.8-16.1
		c0.3-1,1.4-1.6,2.5-1.3l11,2.9c0.3,0.1,0.4,0.3,0.4,0.6c-0.1,0.3-0.4,0.4-0.6,0.3l-11-2.9c-0.6-0.2-1.1,0.2-1.3,0.7l-2.2,7.3
		l10.8,2.8c0.3,0.1,0.4,0.3,0.3,0.6c-0.1,0.2-0.4,0.4-0.6,0.3l-10.8-2.9l-2.3,7.8c-0.1,0.3,0,0.5,0.1,0.7s0.4,0.4,0.6,0.5l11,2.9
		c0.3,0.1,0.4,0.3,0.3,0.6C127,28.6,126.8,28.7,126.6,28.7z"/>
</g>
<g class="st3">
	<path class="st9" d="M145.3,36.5c-0.2,0-0.5-0.2-0.5-0.4c-0.2-1.2,0.5-2.9,1.2-4.6c0.5-1.2,1-2.4,1-3.1c0.1-1.8-1.8-2.5-1.9-2.5
		c-0.3-0.1-0.5-0.2-0.8-0.3l-6.5-2.8h-0.1l-4,8.2c-0.1,0.2-0.4,0.4-0.7,0.2c-0.3-0.1-0.4-0.4-0.2-0.6l8-16.5c0,0,0,0,0-0.1
		c0.2-0.4,0.6-0.8,1-0.9h0.1c0.5-0.2,1.1-0.2,1.6,0.1l5.6,2.4l0,0c2.9,1.2,4.1,4.5,2.8,7.3c-0.6,1.3-1.8,2.4-3.2,2.9
		c-0.5,0.2-1.1,0.3-1.6,0.4c0.5,0.6,1,1.4,0.9,2.4c0,0.9-0.5,2.1-1.1,3.4c-0.6,1.5-1.3,3.2-1.1,4.1
		C145.8,36.2,145.6,36.4,145.3,36.5L145.3,36.5z M145.3,25c1,0.3,2,0.2,3-0.1c1.2-0.4,2.1-1.3,2.7-2.4c1.1-2.3,0.1-5-2.3-6l0,0
		l-5.6-2.4c-0.2-0.1-0.5-0.1-0.8,0s-0.5,0.3-0.6,0.6l-3.6,7.4h0.1l6.5,2.8C144.9,24.8,145.1,24.9,145.3,25L145.3,25z"/>
</g>
<g class="st3">
	<path class="st9" d="M94,24.8c-0.3,0-0.5-0.2-0.5-0.5L93.2,4.8c0-0.3,0.2-0.5,0.5-0.5l0,0c0.3,0,0.5,0.2,0.5,0.5l0.1,10.6L106,4.2
		c0.2-0.2,0.5-0.2,0.7,0c0.2,0.2,0.2,0.5,0,0.7l-8.5,8.2l9.3,10.8c0.2,0.2,0.1,0.5-0.1,0.7s-0.5,0.1-0.7-0.1l-9.2-10.7l-3.1,2.9
		l0.1,7.6C94.5,24.6,94.3,24.8,94,24.8L94,24.8z"/>
</g>
<g class="st3">
	<path class="st9" d="M44.9,190.3c-0.1,0-0.2,0-0.3-0.1l-7.7-6.4c-0.4-0.4-0.7-0.8-0.7-1.4c0-0.5,0.2-1.1,0.5-1.5l13.1-14.1
		c0.2-0.2,0.5-0.2,0.7,0s0.2,0.5,0,0.7l-13.1,14.1c-0.2,0.2-0.3,0.5-0.3,0.8s0.1,0.5,0.4,0.7l7.7,6.4c0.2,0.2,0.2,0.5,0,0.7
		C45.2,190.3,45,190.3,44.9,190.3z"/>
</g>
<g class="st3">
	<path class="st9" d="M108.5,204c-4.3,0-9.1-2.6-9.6-10.1c-0.5-7.9,4.4-11,8.8-11.2c4.3-0.3,7.8,1.6,9,5.1c0.1,0.2-0.1,0.5-0.3,0.6
		c-0.3,0.1-0.5-0.1-0.6-0.3c-1.1-3-4-4.7-8-4.4c-4.1,0.3-8.3,3.1-7.8,10.2c0.5,6.8,4.6,9.2,8.6,9.2c0.2,0,0.4,0,0.6,0
		c4.4-0.3,7.3-3.2,7.8-7.7c0-0.4,0.1-0.7,0-1.2c-0.2-0.3-0.6-0.5-1-0.5l-6.5,0.4l0,0c-0.3,0-0.5-0.2-0.5-0.4c0-0.3,0.2-0.5,0.5-0.5
		l6.5-0.4c1.1-0.1,2.2,0.8,2.2,1.9l0.5,7.9c0,0.3-0.2,0.5-0.5,0.5l0,0c-0.3,0-0.5-0.2-0.5-0.4l-0.3-4.4c-1.3,3.5-4.2,5.7-8.1,5.9
		C108.9,204,108.7,204,108.5,204z"/>
</g>
<g class="st3">
	<path class="st9" d="M135.2,199.5c-1,0-2.1-0.2-3-0.6c-1.8-0.7-3.1-2-3.7-3.7l-5-13.5c-0.1-0.2,0-0.5,0.3-0.6s0.5,0,0.6,0.3l5,13.5
		c0.5,1.4,1.6,2.5,3.1,3.1s3.3,0.7,4.9,0.1l0.6-0.2c1.6-0.5,3-1.6,3.8-3s0.9-2.9,0.4-4.3l-5-13.5c-0.1-0.3,0-0.5,0.3-0.6
		s0.5,0,0.6,0.3l5,13.5c0.6,1.7,0.4,3.5-0.5,5.1s-2.4,2.8-4.3,3.4l-0.6,0.2C137,199.4,136.1,199.5,135.2,199.5z"/>
</g>
<g class="st3">
	<path class="st9" d="M65.1,199.3c-0.1,0-0.1,0-0.2,0L54,194.8c-1.1-0.4-1.6-1.6-1.1-2.6l3.7-8.2l0,0l0,0l3.5-7.7
		c0.5-1,1.7-1.5,2.8-1l10.9,4.4c0.3,0.1,0.4,0.4,0.3,0.6c-0.1,0.2-0.4,0.4-0.7,0.2l-10.9-4.4c-0.6-0.2-1.2,0-1.4,0.5l-3.3,7.3
		l10.7,4.4c0.3,0.1,0.4,0.4,0.3,0.6c-0.1,0.2-0.4,0.4-0.7,0.2l-10.7-4.4l-3.5,7.8c-0.2,0.5,0,1.1,0.6,1.4l10.9,4.4
		c0.3,0.1,0.4,0.4,0.3,0.6C65.5,199.2,65.3,199.3,65.1,199.3z"/>
</g>
<g class="st3">
	<path class="st9" d="M157,190.2c-0.7,0-1.4-0.3-1.8-0.9l-5-7.6l0,0l0,0l-4.7-7.1c-0.6-0.9-0.3-2.2,0.7-2.7l10.1-5.9
		c0.2-0.1,0.6-0.1,0.7,0.2c0.1,0.2,0.1,0.5-0.2,0.7l-10.1,5.9c-0.5,0.3-0.7,1-0.4,1.4l4.4,6.7l9.9-5.8c0.2-0.1,0.5-0.1,0.7,0.1
		c0.1,0.2,0.1,0.5-0.2,0.7l-9.9,5.8l4.7,7.2c0.3,0.5,1,0.6,1.5,0.3l10.1-5.9c0.2-0.1,0.5-0.1,0.7,0.1c0.1,0.2,0.1,0.5-0.2,0.7
		l-10.1,5.9C157.8,190.1,157.4,190.2,157,190.2z"/>
</g>
<g class="st3">
	<path class="st9" d="M91.3,203.8c-0.2,0-0.4-0.2-0.5-0.4l-1.5-7.5l-10-1.5l-4,6.6c-0.1,0.2-0.5,0.3-0.7,0.2s-0.3-0.4-0.2-0.7
		l11.2-18.4c0.5-0.7,0.9-0.8,1.2-0.7c0.3,0,0.7,0.2,0.9,1.1l2.5,12.9l0,0l1.5,7.8C91.8,203.5,91.6,203.7,91.3,203.8L91.3,203.8z
		 M79.9,193.5l9.2,1.4l-2.4-12.3c0-0.1,0-0.2-0.1-0.2c0,0-0.1,0.1-0.1,0.2L79.9,193.5z"/>
</g>
<g class="st3">
	<path class="st9" d="M46.2,157.8c-0.1,0-0.3,0-0.4-0.1c-0.2-0.2-0.2-0.5,0-0.7l109-102.8c0.2-0.2,0.5-0.2,0.7,0s0.2,0.5,0,0.7
		L46.6,157.7C46.5,157.8,46.4,157.8,46.2,157.8z"/>
</g>
<g class="st3">
	<path class="st9" d="M155.1,157.8c-0.1,0-0.3,0-0.4-0.1L45.9,54.8c-0.2-0.2-0.2-0.5,0-0.7s0.5-0.2,0.7,0L155.5,157
		c0.2,0.2,0.2,0.5,0,0.7C155.4,157.8,155.3,157.8,155.1,157.8z"/>
</g>
<g class="st3">
	<path class="st9" d="M35.2,169.2c-0.1,0-0.2,0-0.3-0.1c-19.7-16.9-31-40.9-31-66c0-28.6,14.7-55.7,39.4-72.4
		c0.2-0.2,0.5-0.1,0.7,0.1s0.1,0.5-0.1,0.7c-24.4,16.5-39,43.3-39,71.6c0,24.8,11.2,48.6,30.7,65.3c0.2,0.2,0.2,0.5,0,0.7
		C35.5,169.1,35.3,169.2,35.2,169.2z"/>
</g>
<g class="st3">
	<path class="st9" d="M165.2,165.3c-0.1,0-0.3,0-0.3-0.1c-0.2-0.2-0.2-0.5,0-0.7c17.1-16.5,26.5-38.4,26.5-61.5
		c0-27.8-13.5-53.5-37.1-70.3c-0.2-0.2-0.3-0.5-0.1-0.7s0.5-0.2,0.7-0.1c23.8,17,37.5,42.9,37.5,71c0,23.4-9.5,45.5-26.8,62.2
		C165.5,165.3,165.3,165.3,165.2,165.3z"/>
</g>
<circle class="st10" cx="100.7" cy="101.5" r="95.2"/>
</svg>
